<svg xmlns="http://www.w3.org/2000/svg" xmlns:xlink="http://www.w3.org/1999/xlink" width="2400" zoomAndPan="magnify" viewBox="0 0 1800 449.999984" height="600" preserveAspectRatio="xMidYMid meet" version="1.2"><defs><clipPath id="8153c5ec71"><path d="M 67 127.589844 L 214.769531 127.589844 L 214.769531 322.589844 L 67 322.589844 Z M 67 127.589844 "/></clipPath></defs><g id="8d0f1d3efc"><g clip-rule="nonzero" clip-path="url(#8153c5ec71)"><path style=" stroke:none;fill-rule:evenodd;fill:#393f4a;fill-opacity:1;" d="M 168.859375 196.335938 C 158.9375 191.363281 156.722656 193.570312 149.910156 200.378906 C 147.429688 200.070312 144.9375 199.757812 142.457031 199.449219 C 144.214844 201.207031 145.984375 202.960938 147.742188 204.730469 C 144.753906 226.710938 118.9375 185.976562 109.53125 182.679688 C 108.910156 182.289062 108.292969 181.890625 107.683594 181.488281 C 117.859375 172.519531 131.226562 167.085938 145.855469 167.085938 C 177.761719 167.085938 203.636719 192.949219 203.636719 224.863281 C 203.636719 256.777344 177.773438 282.640625 145.855469 282.640625 C 140.621094 282.640625 135.554688 281.941406 130.730469 280.644531 C 132.59375 285.042969 134.738281 289.1875 137.324219 292.988281 C 140.125 293.332031 142.972656 293.519531 145.867188 293.519531 C 183.777344 293.519531 214.511719 262.785156 214.511719 224.875 C 214.511719 186.964844 183.765625 156.199219 145.855469 156.199219 C 127.621094 156.199219 111.046875 163.308594 98.757812 174.90625 L 98.964844 175.101562 C 83.105469 162.285156 73.011719 146.503906 68.84375 127.695312 C 64.019531 168.496094 76.421875 177.238281 103.9375 195.40625 C 92.132812 191.019531 80.339844 183.851562 68.53125 168.691406 C 69.222656 200.90625 88.195312 203.054688 113.253906 214.046875 C 102.722656 213.804688 91.996094 212.21875 80.636719 206.59375 C 86.058594 228.414062 108.097656 227.492188 125.046875 227.710938 C 119.398438 232.269531 112.265625 232.683594 104.546875 231.433594 C 109.347656 238.414062 120.441406 240.09375 133.121094 240.4375 C 131.46875 246.960938 129.8125 253.484375 128.148438 260.007812 C 177.003906 241.058594 148.910156 203.535156 168.859375 196.335938 Z M 143.925781 308.46875 C 134.511719 299.855469 128.90625 288.039062 124.667969 275.085938 C 127.414062 300.453125 127.136719 304.601562 144.386719 322.296875 C 144.238281 317.679688 144.089844 313.074219 143.925781 308.46875 Z M 122.808594 262.5 C 108.761719 286.0625 111.910156 299.226562 129.640625 315.453125 C 120.742188 292.046875 122.464844 287.671875 122.808594 262.5 Z M 108.992188 296.355469 C 108.96875 282.296875 113.472656 269.617188 122.96875 258.457031 C 99.90625 269.835938 104.351562 275.347656 108.992188 296.355469 Z M 108.992188 296.355469 "/></g><g style="fill:#393f4a;fill-opacity:1;"><g transform="translate(234.369199, 286.649714)"><path style="stroke:none" d="M 55.84375 -87.046875 L 55.84375 0 L 31.84375 0 L 31.84375 -87.046875 L 0.796875 -87.046875 L 0.796875 -108.796875 L 86.875 -108.796875 L 86.875 -87.046875 Z M 55.84375 -87.046875 "/></g></g><g style="fill:#393f4a;fill-opacity:1;"><g transform="translate(320.447062, 286.649714)"><path style="stroke:none" d="M 81.765625 -40 L 81.765625 0 L 57.765625 0 L 57.765625 -40 C 57.765625 -44.15625 56.910156 -47.328125 55.203125 -49.515625 C 53.492188 -51.703125 50.773438 -52.796875 47.046875 -52.796875 C 43.304688 -52.796875 40.128906 -51.0625 37.515625 -47.59375 C 34.898438 -44.132812 33.59375 -40.003906 33.59375 -35.203125 L 33.59375 0 L 9.59375 0 L 9.59375 -120 L 33.59375 -120 L 33.59375 -61.921875 C 36.050781 -65.015625 39.117188 -67.492188 42.796875 -69.359375 C 46.472656 -71.222656 50.609375 -72.15625 55.203125 -72.15625 C 64.691406 -72.15625 71.488281 -69.195312 75.59375 -63.28125 C 79.707031 -57.363281 81.765625 -49.601562 81.765625 -40 Z M 81.765625 -40 "/></g></g><g style="fill:#393f4a;fill-opacity:1;"><g transform="translate(407.804901, 286.649714)"><path style="stroke:none" d="M 31.359375 -43.6875 L 62.875 -43.6875 C 62.875 -43.6875 62.738281 -44.351562 62.46875 -45.6875 C 62.207031 -47.019531 61.570312 -48.535156 60.5625 -50.234375 C 59.550781 -51.941406 57.976562 -53.460938 55.84375 -54.796875 C 53.707031 -56.128906 50.828125 -56.796875 47.203125 -56.796875 C 43.460938 -56.796875 40.523438 -56.128906 38.390625 -54.796875 C 36.265625 -53.460938 34.691406 -51.941406 33.671875 -50.234375 C 32.660156 -48.535156 32.019531 -47.019531 31.75 -45.6875 C 31.488281 -44.351562 31.359375 -43.6875 31.359375 -43.6875 Z M 85.921875 -36.796875 C 85.921875 -36.054688 85.894531 -35.3125 85.84375 -34.5625 C 85.789062 -33.8125 85.765625 -33.0625 85.765625 -32.3125 L 31.046875 -32.3125 C 31.046875 -29.644531 31.65625 -27.003906 32.875 -24.390625 C 34.101562 -21.785156 35.863281 -19.65625 38.15625 -18 C 40.445312 -16.34375 43.140625 -15.515625 46.234375 -15.515625 C 50.503906 -15.515625 53.863281 -16.660156 56.3125 -18.953125 C 58.769531 -21.253906 60.050781 -23.679688 60.15625 -26.234375 L 84.640625 -26.234375 C 82.609375 -16.953125 78.125 -9.992188 71.1875 -5.359375 C 64.257812 -0.722656 56.101562 1.59375 46.71875 1.59375 C 38.613281 1.59375 31.46875 0.078125 25.28125 -2.953125 C 19.09375 -5.992188 14.265625 -10.257812 10.796875 -15.75 C 7.328125 -21.25 5.59375 -27.734375 5.59375 -35.203125 C 5.59375 -42.554688 7.378906 -49.003906 10.953125 -54.546875 C 14.523438 -60.097656 19.40625 -64.421875 25.59375 -67.515625 C 31.78125 -70.609375 38.820312 -72.15625 46.71875 -72.15625 C 53.863281 -72.15625 60.394531 -70.769531 66.3125 -68 C 72.238281 -65.226562 76.988281 -61.226562 80.5625 -56 C 84.132812 -50.769531 85.921875 -44.367188 85.921875 -36.796875 Z M 85.921875 -36.796875 "/></g></g><g style="fill:#393f4a;fill-opacity:1;"><g transform="translate(497.722679, 286.649714)"><path style="stroke:none" d=""/></g></g><g style="fill:#393f4a;fill-opacity:1;"><g transform="translate(536.121701, 286.649714)"><path style="stroke:none" d="M 33.59375 -38.875 L 33.59375 0 L 9.59375 0 L 9.59375 -108.796875 L 50.40625 -108.796875 C 56.269531 -108.796875 61.734375 -107.328125 66.796875 -104.390625 C 71.867188 -101.460938 75.953125 -97.382812 79.046875 -92.15625 C 82.140625 -86.925781 83.6875 -80.847656 83.6875 -73.921875 C 83.6875 -66.554688 82.140625 -60.257812 79.046875 -55.03125 C 75.953125 -49.8125 71.867188 -45.8125 66.796875 -43.03125 C 61.734375 -40.257812 56.269531 -38.875 50.40625 -38.875 Z M 46.40625 -89.921875 L 33.59375 -89.921875 L 33.59375 -57.765625 L 46.40625 -57.765625 C 49.925781 -57.765625 53.203125 -59.148438 56.234375 -61.921875 C 59.273438 -64.691406 60.796875 -68.691406 60.796875 -73.921875 C 60.796875 -78.929688 59.273438 -82.847656 56.234375 -85.671875 C 53.203125 -88.503906 49.925781 -89.921875 46.40625 -89.921875 Z M 46.40625 -89.921875 "/></g></g><g style="fill:#393f4a;fill-opacity:1;"><g transform="translate(620.599578, 286.649714)"><path style="stroke:none" d="M 81.765625 -40 L 81.765625 0 L 57.765625 0 L 57.765625 -40 C 57.765625 -44.15625 56.910156 -47.328125 55.203125 -49.515625 C 53.492188 -51.703125 50.773438 -52.796875 47.046875 -52.796875 C 43.304688 -52.796875 40.128906 -51.0625 37.515625 -47.59375 C 34.898438 -44.132812 33.59375 -40.003906 33.59375 -35.203125 L 33.59375 0 L 9.59375 0 L 9.59375 -120 L 33.59375 -120 L 33.59375 -61.921875 C 36.050781 -65.015625 39.117188 -67.492188 42.796875 -69.359375 C 46.472656 -71.222656 50.609375 -72.15625 55.203125 -72.15625 C 64.691406 -72.15625 71.488281 -69.195312 75.59375 -63.28125 C 79.707031 -57.363281 81.765625 -49.601562 81.765625 -40 Z M 81.765625 -40 "/></g></g><g style="fill:#393f4a;fill-opacity:1;"><g transform="translate(707.957451, 286.649714)"><path style="stroke:none" d="M 45.921875 -16.640625 C 50.179688 -16.640625 53.484375 -17.546875 55.828125 -19.359375 C 58.179688 -21.171875 59.835938 -23.488281 60.796875 -26.3125 C 61.753906 -29.144531 62.234375 -32.054688 62.234375 -35.046875 C 62.234375 -38.023438 61.726562 -40.898438 60.71875 -43.671875 C 59.707031 -46.453125 58.023438 -48.75 55.671875 -50.5625 C 53.328125 -52.375 50.078125 -53.28125 45.921875 -53.28125 C 41.765625 -53.28125 38.484375 -52.375 36.078125 -50.5625 C 33.679688 -48.75 31.972656 -46.453125 30.953125 -43.671875 C 29.941406 -40.898438 29.4375 -38.023438 29.4375 -35.046875 C 29.4375 -32.054688 29.914062 -29.144531 30.875 -26.3125 C 31.832031 -23.488281 33.507812 -21.171875 35.90625 -19.359375 C 38.3125 -17.546875 41.648438 -16.640625 45.921875 -16.640625 Z M 45.921875 -72 C 53.273438 -72 59.992188 -70.453125 66.078125 -67.359375 C 72.160156 -64.265625 77.015625 -59.96875 80.640625 -54.46875 C 84.265625 -48.976562 86.078125 -42.554688 86.078125 -35.203125 C 86.078125 -27.734375 84.289062 -21.25 80.71875 -15.75 C 77.144531 -10.257812 72.316406 -6.019531 66.234375 -3.03125 C 60.160156 -0.0507812 53.390625 1.4375 45.921875 1.4375 C 38.453125 1.4375 31.648438 -0.0507812 25.515625 -3.03125 C 19.378906 -6.019531 14.523438 -10.257812 10.953125 -15.75 C 7.378906 -21.25 5.59375 -27.734375 5.59375 -35.203125 C 5.59375 -42.554688 7.40625 -48.976562 11.03125 -54.46875 C 14.664062 -59.96875 19.546875 -64.265625 25.671875 -67.359375 C 31.804688 -70.453125 38.554688 -72 45.921875 -72 Z M 45.921875 -72 "/></g></g><g style="fill:#393f4a;fill-opacity:1;"><g transform="translate(798.035218, 286.649714)"><path style="stroke:none" d="M 31.359375 -43.6875 L 62.875 -43.6875 C 62.875 -43.6875 62.738281 -44.351562 62.46875 -45.6875 C 62.207031 -47.019531 61.570312 -48.535156 60.5625 -50.234375 C 59.550781 -51.941406 57.976562 -53.460938 55.84375 -54.796875 C 53.707031 -56.128906 50.828125 -56.796875 47.203125 -56.796875 C 43.460938 -56.796875 40.523438 -56.128906 38.390625 -54.796875 C 36.265625 -53.460938 34.691406 -51.941406 33.671875 -50.234375 C 32.660156 -48.535156 32.019531 -47.019531 31.75 -45.6875 C 31.488281 -44.351562 31.359375 -43.6875 31.359375 -43.6875 Z M 85.921875 -36.796875 C 85.921875 -36.054688 85.894531 -35.3125 85.84375 -34.5625 C 85.789062 -33.8125 85.765625 -33.0625 85.765625 -32.3125 L 31.046875 -32.3125 C 31.046875 -29.644531 31.65625 -27.003906 32.875 -24.390625 C 34.101562 -21.785156 35.863281 -19.65625 38.15625 -18 C 40.445312 -16.34375 43.140625 -15.515625 46.234375 -15.515625 C 50.503906 -15.515625 53.863281 -16.660156 56.3125 -18.953125 C 58.769531 -21.253906 60.050781 -23.679688 60.15625 -26.234375 L 84.640625 -26.234375 C 82.609375 -16.953125 78.125 -9.992188 71.1875 -5.359375 C 64.257812 -0.722656 56.101562 1.59375 46.71875 1.59375 C 38.613281 1.59375 31.46875 0.078125 25.28125 -2.953125 C 19.09375 -5.992188 14.265625 -10.257812 10.796875 -15.75 C 7.328125 -21.25 5.59375 -27.734375 5.59375 -35.203125 C 5.59375 -42.554688 7.378906 -49.003906 10.953125 -54.546875 C 14.523438 -60.097656 19.40625 -64.421875 25.59375 -67.515625 C 31.78125 -70.609375 38.820312 -72.15625 46.71875 -72.15625 C 53.863281 -72.15625 60.394531 -70.769531 66.3125 -68 C 72.238281 -65.226562 76.988281 -61.226562 80.5625 -56 C 84.132812 -50.769531 85.921875 -44.367188 85.921875 -36.796875 Z M 85.921875 -36.796875 "/></g></g><g style="fill:#393f4a;fill-opacity:1;"><g transform="translate(887.952951, 286.649714)"><path style="stroke:none" d="M 81.765625 -40 L 81.765625 0 L 57.765625 0 L 57.765625 -40 C 57.765625 -44.15625 56.910156 -47.328125 55.203125 -49.515625 C 53.492188 -51.703125 50.773438 -52.796875 47.046875 -52.796875 C 43.304688 -52.796875 40.128906 -51.0625 37.515625 -47.59375 C 34.898438 -44.132812 33.59375 -40.003906 33.59375 -35.203125 L 33.59375 0 L 9.59375 0 L 9.59375 -70.5625 L 33.59375 -70.5625 L 33.59375 -61.921875 C 36.050781 -65.015625 39.117188 -67.492188 42.796875 -69.359375 C 46.472656 -71.222656 50.609375 -72.15625 55.203125 -72.15625 C 64.691406 -72.15625 71.488281 -69.195312 75.59375 -63.28125 C 79.707031 -57.363281 81.765625 -49.601562 81.765625 -40 Z M 81.765625 -40 "/></g></g><g style="fill:#393f4a;fill-opacity:1;"><g transform="translate(975.310824, 286.649714)"><path style="stroke:none" d="M 8.3125 -94.71875 C 8.3125 -98.664062 9.671875 -102 12.390625 -104.71875 C 15.117188 -107.4375 18.457031 -108.796875 22.40625 -108.796875 C 26.238281 -108.796875 29.539062 -107.4375 32.3125 -104.71875 C 35.09375 -102 36.484375 -98.664062 36.484375 -94.71875 C 36.484375 -90.875 35.09375 -87.566406 32.3125 -84.796875 C 29.539062 -82.023438 26.238281 -80.640625 22.40625 -80.640625 C 18.457031 -80.640625 15.117188 -82.023438 12.390625 -84.796875 C 9.671875 -87.566406 8.3125 -90.875 8.3125 -94.71875 Z M 34.40625 0 L 10.40625 0 L 10.40625 -70.5625 L 34.40625 -70.5625 Z M 34.40625 0 "/></g></g><g style="fill:#393f4a;fill-opacity:1;"><g transform="translate(1018.509704, 286.649714)"><path style="stroke:none" d="M -0.953125 -70.40625 L 26.875 -70.40625 L 40.796875 -48.796875 L 54.71875 -70.40625 L 82.5625 -70.40625 L 56.15625 -35.515625 L 84.796875 0 L 55.515625 0 L 40.796875 -21.765625 L 26.078125 0 L -3.203125 0 L 25.4375 -35.515625 Z M -0.953125 -70.40625 "/></g></g><g style="fill:#393f4a;fill-opacity:1;"><g transform="translate(1098.509757, 286.649714)"><path style="stroke:none" d=""/></g></g><g style="fill:#8c7878;fill-opacity:1;"><g transform="translate(1136.918032, 286.649714)"><path style="stroke:none" d="M 33.59375 -38.875 L 33.59375 0 L 9.59375 0 L 9.59375 -108.796875 L 50.40625 -108.796875 C 56.269531 -108.796875 61.734375 -107.328125 66.796875 -104.390625 C 71.867188 -101.460938 75.953125 -97.382812 79.046875 -92.15625 C 82.140625 -86.925781 83.6875 -80.847656 83.6875 -73.921875 C 83.6875 -66.554688 82.140625 -60.257812 79.046875 -55.03125 C 75.953125 -49.8125 71.867188 -45.8125 66.796875 -43.03125 C 61.734375 -40.257812 56.269531 -38.875 50.40625 -38.875 Z M 46.40625 -89.921875 L 33.59375 -89.921875 L 33.59375 -57.765625 L 46.40625 -57.765625 C 49.925781 -57.765625 53.203125 -59.148438 56.234375 -61.921875 C 59.273438 -64.691406 60.796875 -68.691406 60.796875 -73.921875 C 60.796875 -78.929688 59.273438 -82.847656 56.234375 -85.671875 C 53.203125 -88.503906 49.925781 -89.921875 46.40625 -89.921875 Z M 46.40625 -89.921875 "/></g></g><g style="fill:#8c7878;fill-opacity:1;"><g transform="translate(1221.395931, 286.649714)"><path style="stroke:none" d="M 49.4375 -52.796875 C 46.445312 -52.796875 43.753906 -51.914062 41.359375 -50.15625 C 38.960938 -48.394531 37.066406 -46.179688 35.671875 -43.515625 C 34.285156 -40.847656 33.59375 -38.078125 33.59375 -35.203125 L 33.59375 0 L 9.59375 0 L 9.59375 -70.5625 L 33.59375 -70.5625 L 33.59375 -61.921875 C 35.40625 -64.585938 37.859375 -66.957031 40.953125 -69.03125 C 44.046875 -71.113281 47.78125 -72.15625 52.15625 -72.15625 C 53.226562 -72.15625 54.457031 -72.019531 55.84375 -71.75 C 57.226562 -71.488281 58.398438 -71.09375 59.359375 -70.5625 L 59.359375 -48.796875 L 59.046875 -48.796875 C 57.867188 -50.296875 56.425781 -51.335938 54.71875 -51.921875 C 53.007812 -52.503906 51.25 -52.796875 49.4375 -52.796875 Z M 49.4375 -52.796875 "/></g></g><g style="fill:#8c7878;fill-opacity:1;"><g transform="translate(1280.75445, 286.649714)"><path style="stroke:none" d="M 45.921875 -16.640625 C 50.179688 -16.640625 53.484375 -17.546875 55.828125 -19.359375 C 58.179688 -21.171875 59.835938 -23.488281 60.796875 -26.3125 C 61.753906 -29.144531 62.234375 -32.054688 62.234375 -35.046875 C 62.234375 -38.023438 61.726562 -40.898438 60.71875 -43.671875 C 59.707031 -46.453125 58.023438 -48.75 55.671875 -50.5625 C 53.328125 -52.375 50.078125 -53.28125 45.921875 -53.28125 C 41.765625 -53.28125 38.484375 -52.375 36.078125 -50.5625 C 33.679688 -48.75 31.972656 -46.453125 30.953125 -43.671875 C 29.941406 -40.898438 29.4375 -38.023438 29.4375 -35.046875 C 29.4375 -32.054688 29.914062 -29.144531 30.875 -26.3125 C 31.832031 -23.488281 33.507812 -21.171875 35.90625 -19.359375 C 38.3125 -17.546875 41.648438 -16.640625 45.921875 -16.640625 Z M 45.921875 -72 C 53.273438 -72 59.992188 -70.453125 66.078125 -67.359375 C 72.160156 -64.265625 77.015625 -59.96875 80.640625 -54.46875 C 84.265625 -48.976562 86.078125 -42.554688 86.078125 -35.203125 C 86.078125 -27.734375 84.289062 -21.25 80.71875 -15.75 C 77.144531 -10.257812 72.316406 -6.019531 66.234375 -3.03125 C 60.160156 -0.0507812 53.390625 1.4375 45.921875 1.4375 C 38.453125 1.4375 31.648438 -0.0507812 25.515625 -3.03125 C 19.378906 -6.019531 14.523438 -10.257812 10.953125 -15.75 C 7.378906 -21.25 5.59375 -27.734375 5.59375 -35.203125 C 5.59375 -42.554688 7.40625 -48.976562 11.03125 -54.46875 C 14.664062 -59.96875 19.546875 -64.265625 25.671875 -67.359375 C 31.804688 -70.453125 38.554688 -72 45.921875 -72 Z M 45.921875 -72 "/></g></g><g style="fill:#8c7878;fill-opacity:1;"><g transform="translate(1370.832229, 286.649714)"><path style="stroke:none" d="M 39.84375 -52 L 39.84375 0 L 16 0 L 16 -52 L 3.203125 -52 L 3.203125 -70.5625 L 16 -70.5625 L 16 -97.4375 L 39.84375 -97.4375 L 39.84375 -70.5625 L 52.640625 -70.5625 L 52.640625 -52 Z M 39.84375 -52 "/></g></g><g style="fill:#8c7878;fill-opacity:1;"><g transform="translate(1425.070857, 286.649714)"><path style="stroke:none" d="M 45.921875 -16.640625 C 50.179688 -16.640625 53.484375 -17.546875 55.828125 -19.359375 C 58.179688 -21.171875 59.835938 -23.488281 60.796875 -26.3125 C 61.753906 -29.144531 62.234375 -32.054688 62.234375 -35.046875 C 62.234375 -38.023438 61.726562 -40.898438 60.71875 -43.671875 C 59.707031 -46.453125 58.023438 -48.75 55.671875 -50.5625 C 53.328125 -52.375 50.078125 -53.28125 45.921875 -53.28125 C 41.765625 -53.28125 38.484375 -52.375 36.078125 -50.5625 C 33.679688 -48.75 31.972656 -46.453125 30.953125 -43.671875 C 29.941406 -40.898438 29.4375 -38.023438 29.4375 -35.046875 C 29.4375 -32.054688 29.914062 -29.144531 30.875 -26.3125 C 31.832031 -23.488281 33.507812 -21.171875 35.90625 -19.359375 C 38.3125 -17.546875 41.648438 -16.640625 45.921875 -16.640625 Z M 45.921875 -72 C 53.273438 -72 59.992188 -70.453125 66.078125 -67.359375 C 72.160156 -64.265625 77.015625 -59.96875 80.640625 -54.46875 C 84.265625 -48.976562 86.078125 -42.554688 86.078125 -35.203125 C 86.078125 -27.734375 84.289062 -21.25 80.71875 -15.75 C 77.144531 -10.257812 72.316406 -6.019531 66.234375 -3.03125 C 60.160156 -0.0507812 53.390625 1.4375 45.921875 1.4375 C 38.453125 1.4375 31.648438 -0.0507812 25.515625 -3.03125 C 19.378906 -6.019531 14.523438 -10.257812 10.953125 -15.75 C 7.378906 -21.25 5.59375 -27.734375 5.59375 -35.203125 C 5.59375 -42.554688 7.40625 -48.976562 11.03125 -54.46875 C 14.664062 -59.96875 19.546875 -64.265625 25.671875 -67.359375 C 31.804688 -70.453125 38.554688 -72 45.921875 -72 Z M 45.921875 -72 "/></g></g><g style="fill:#8c7878;fill-opacity:1;"><g transform="translate(1515.148624, 286.649714)"><path style="stroke:none" d="M 45.59375 -53.4375 C 41.96875 -53.4375 39.113281 -52.445312 37.03125 -50.46875 C 34.957031 -48.5 33.46875 -46.101562 32.5625 -43.28125 C 31.65625 -40.457031 31.203125 -37.710938 31.203125 -35.046875 C 31.203125 -32.378906 31.628906 -29.601562 32.484375 -26.71875 C 33.335938 -23.84375 34.800781 -21.441406 36.875 -19.515625 C 38.957031 -17.597656 41.863281 -16.640625 45.59375 -16.640625 C 49.332031 -16.640625 52.476562 -17.4375 55.03125 -19.03125 C 57.59375 -20.632812 59.085938 -23.035156 59.515625 -26.234375 L 82.875 -26.234375 C 82.132812 -21.015625 80.109375 -16.296875 76.796875 -12.078125 C 73.492188 -7.867188 69.117188 -4.535156 63.671875 -2.078125 C 58.234375 0.367188 51.941406 1.59375 44.796875 1.59375 C 36.691406 1.59375 29.707031 -0.0820312 23.84375 -3.4375 C 17.976562 -6.800781 13.46875 -11.253906 10.3125 -16.796875 C 7.164062 -22.347656 5.59375 -28.484375 5.59375 -35.203125 C 5.59375 -41.921875 7.21875 -48.078125 10.46875 -53.671875 C 13.726562 -59.273438 18.316406 -63.753906 24.234375 -67.109375 C 30.160156 -70.472656 37.015625 -72.15625 44.796875 -72.15625 C 52.472656 -72.15625 59.113281 -70.796875 64.71875 -68.078125 C 70.320312 -65.359375 74.75 -61.734375 78 -57.203125 C 81.25 -52.671875 83.035156 -47.679688 83.359375 -42.234375 L 59.515625 -42.234375 C 59.410156 -45.648438 58.101562 -48.367188 55.59375 -50.390625 C 53.09375 -52.421875 49.757812 -53.4375 45.59375 -53.4375 Z M 45.59375 -53.4375 "/></g></g><g style="fill:#8c7878;fill-opacity:1;"><g transform="translate(1601.866451, 286.649714)"><path style="stroke:none" d="M 45.921875 -16.640625 C 50.179688 -16.640625 53.484375 -17.546875 55.828125 -19.359375 C 58.179688 -21.171875 59.835938 -23.488281 60.796875 -26.3125 C 61.753906 -29.144531 62.234375 -32.054688 62.234375 -35.046875 C 62.234375 -38.023438 61.726562 -40.898438 60.71875 -43.671875 C 59.707031 -46.453125 58.023438 -48.75 55.671875 -50.5625 C 53.328125 -52.375 50.078125 -53.28125 45.921875 -53.28125 C 41.765625 -53.28125 38.484375 -52.375 36.078125 -50.5625 C 33.679688 -48.75 31.972656 -46.453125 30.953125 -43.671875 C 29.941406 -40.898438 29.4375 -38.023438 29.4375 -35.046875 C 29.4375 -32.054688 29.914062 -29.144531 30.875 -26.3125 C 31.832031 -23.488281 33.507812 -21.171875 35.90625 -19.359375 C 38.3125 -17.546875 41.648438 -16.640625 45.921875 -16.640625 Z M 45.921875 -72 C 53.273438 -72 59.992188 -70.453125 66.078125 -67.359375 C 72.160156 -64.265625 77.015625 -59.96875 80.640625 -54.46875 C 84.265625 -48.976562 86.078125 -42.554688 86.078125 -35.203125 C 86.078125 -27.734375 84.289062 -21.25 80.71875 -15.75 C 77.144531 -10.257812 72.316406 -6.019531 66.234375 -3.03125 C 60.160156 -0.0507812 53.390625 1.4375 45.921875 1.4375 C 38.453125 1.4375 31.648438 -0.0507812 25.515625 -3.03125 C 19.378906 -6.019531 14.523438 -10.257812 10.953125 -15.75 C 7.378906 -21.25 5.59375 -27.734375 5.59375 -35.203125 C 5.59375 -42.554688 7.40625 -48.976562 11.03125 -54.46875 C 14.664062 -59.96875 19.546875 -64.265625 25.671875 -67.359375 C 31.804688 -70.453125 38.554688 -72 45.921875 -72 Z M 45.921875 -72 "/></g></g><g style="fill:#8c7878;fill-opacity:1;"><g transform="translate(1691.944264, 286.649714)"><path style="stroke:none" d="M 33.59375 0 L 9.59375 0 L 9.59375 -120 L 33.59375 -120 Z M 33.59375 0 "/></g></g></g></svg>